ffmpeg version 3.4.8-0ubuntu0.2 Copyright (c) 2000-2020 the FFmpeg developers
  built with gcc 7 (Ubuntu 7.5.0-3ubuntu1~18.04)
  configuration: --prefix=/usr --extra-version=0ubuntu0.2 --toolchain=hardened --libdir=/usr/lib/x86_64-linux-gnu --incdir=/usr/include/x86_64-linux-gnu --enable-gpl --disable-stripping --enable-avresample --enable-avisynth --enable-gnutls --enable-ladspa --enable-libass --enable-libbluray --enable-libbs2b --enable-libcaca --enable-libcdio --enable-libflite --enable-libfontconfig --enable-libfreetype --enable-libfribidi --enable-libgme --enable-libgsm --enable-libmp3lame --enable-libmysofa --enable-libopenjpeg --enable-libopenmpt --enable-libopus --enable-libpulse --enable-librubberband --enable-librsvg --enable-libshine --enable-libsnappy --enable-libsoxr --enable-libspeex --enable-libssh --enable-libtheora --enable-libtwolame --enable-libvorbis --enable-libvpx --enable-libwavpack --enable-libwebp --enable-libx265 --enable-libxml2 --enable-libxvid --enable-libzmq --enable-libzvbi --enable-omx --enable-openal --enable-opengl --enable-sdl2 --enable-libdc1394 --enable-libdrm --enable-libiec61883 --enable-chromaprint --enable-frei0r --enable-libopencv --enable-libx264 --enable-shared
  libavutil      55. 78.100 / 55. 78.100
  libavcodec     57.107.100 / 57.107.100
  libavformat    57. 83.100 / 57. 83.100
  libavdevice    57. 10.100 / 57. 10.100
  libavfilter     6.107.100 /  6.107.100
  libavresample   3.  7.  0 /  3.  7.  0
  libswscale      4.  8.100 /  4.  8.100
  libswresample   2.  9.100 /  2.  9.100
  libpostproc    54.  7.100 / 54.  7.100
[rawvideo @ 0x55764a9e0a20] Estimating duration from bitrate, this may be inaccurate
Input #0, rawvideo, from '../../SVC-Encoder-20220109T061506Z-001/SVC-Encoder/Dataset/RollerCoaster/ERP_8x8/tile_yuv/Tile_62_480x240.yuv':
  Duration: 00:00:10.00, start: 0.000000, bitrate: 41472 kb/s
    Stream #0:0: Video: rawvideo (I420 / 0x30323449), yuv420p, 480x240, 41472 kb/s, 30 tbr, 30 tbn, 30 tbc
Stream mapping:
  Stream #0:0 -> #0:0 (rawvideo (native) -> h264 (libx264))
Press [q] to stop, [?] for help
[libx264 @ 0x55764a9edc60] using cpu capabilities: MMX2 SSE2Fast LZCNT SSSE3 SSE4.2 AVX
[libx264 @ 0x55764a9edc60] profile High, level 2.1
Output #0, rawvideo, to 'RollerCoaster_Tile_62_480x240_x264_QP_36.h264':
  Metadata:
    encoder         : Lavf57.83.100
    Stream #0:0: Video: h264 (libx264), yuv420p, 480x240, q=-1--1, 30 fps, 30 tbn, 30 tbc
    Metadata:
      encoder         : Lavc57.107.100 libx264
    Side data:
      cpb: bitrate max/min/avg: 0/0/0 buffer size: 0 vbv_delay: -1
frame=  300 fps=0.0 q=42.0 LPSNR=Y:inf U:inf V:inf *:inf size=      33kB time=00:00:09.93 bitrate=  27.5kbits/s speed=21.1x    
video:33kB audio:0kB subtitle:0kB other streams:0kB global headers:0kB muxing overhead: 0.000000%
[libx264 @ 0x55764a9edc60] frame I:2     Avg QP:33.98  size:  2967  PSNR Mean Y:39.57 U:44.91 V:40.85 Avg:40.32 Global:40.30
[libx264 @ 0x55764a9edc60] frame P:78    Avg QP:34.85  size:   183  PSNR Mean Y:38.94 U:44.41 V:41.61 Avg:39.88 Global:39.87
[libx264 @ 0x55764a9edc60] frame B:220   Avg QP:41.51  size:    63  PSNR Mean Y:38.76 U:44.42 V:41.56 Avg:39.73 Global:39.72
[libx264 @ 0x55764a9edc60] consecutive B-frames:  0.7%  4.0%  2.0% 93.3%
[libx264 @ 0x55764a9edc60] mb I  I16..4: 32.9% 59.1%  8.0%
[libx264 @ 0x55764a9edc60] mb P  I16..4:  0.4%  0.3%  0.0%  P16..4: 21.7%  0.7%  0.0%  0.0%  0.0%    skip:76.9%
[libx264 @ 0x55764a9edc60] mb B  I16..4:  0.0%  0.0%  0.0%  B16..8: 10.1%  0.1%  0.0%  direct: 0.0%  skip:89.8%  L0:44.7% L1:55.2% BI: 0.1%
[libx264 @ 0x55764a9edc60] 8x8 transform intra:54.0% inter:96.5%
[libx264 @ 0x55764a9edc60] coded y,uvDC,uvAC intra: 26.6% 36.8% 13.6% inter: 0.2% 0.5% 0.0%
[libx264 @ 0x55764a9edc60] i16 v,h,dc,p: 28% 58% 11%  3%
[libx264 @ 0x55764a9edc60] i8 v,h,dc,ddl,ddr,vr,hd,vl,hu:  6% 41% 30%  2%  2%  1%  8%  1%  8%
[libx264 @ 0x55764a9edc60] i4 v,h,dc,ddl,ddr,vr,hd,vl,hu:  6% 51% 19%  3%  3%  1% 12%  1%  5%
[libx264 @ 0x55764a9edc60] i8c dc,h,v,p: 55% 36%  5%  4%
[libx264 @ 0x55764a9edc60] Weighted P-Frames: Y:2.6% UV:0.0%
[libx264 @ 0x55764a9edc60] ref P L0: 59.2% 14.4% 20.2%  6.1%  0.2%
[libx264 @ 0x55764a9edc60] ref B L0: 59.2% 33.4%  7.4%
[libx264 @ 0x55764a9edc60] ref B L1: 76.8% 23.2%
[libx264 @ 0x55764a9edc60] PSNR Mean Y:38.815 U:44.423 V:41.568 Avg:39.772 Global:39.760 kb/s:27.28
